<svg xmlns="http://www.w3.org/2000/svg" width="430" height="430" style="width:100%;height:100%;transform:translate3d(0,0,0);content-visibility:visible" viewBox="0 0 430 430"><defs><clipPath id="w"><path d="M0 0h430v430H0z"/></clipPath><clipPath id="A"><path d="M0 0h430v430H0z"/></clipPath><clipPath id="k"><path d="M0 0h430v430H0z"/></clipPath><clipPath id="x"><path d="M0 0h430v430H0z"/></clipPath><clipPath id="m"><path d="M0 0h430v430H0z"/></clipPath><clipPath id="u"><path d="M0 0h430v430H0z"/></clipPath><clipPath id="n"><path d="M0 0h430v430H0z"/></clipPath><filter id="a" width="100%" height="100%" x="0%" y="0%" filterUnits="objectBoundingBox"><feComponentTransfer in="SourceGraphic"><feFuncA tableValues="1.0 0.0" type="table"/></feComponentTransfer></filter><filter id="B" width="300%" height="300%" x="-100%" y="-100%"><feGaussianBlur result="filter_result_0"/></filter><filter id="d" width="100%" height="100%" x="0%" y="0%" filterUnits="objectBoundingBox"><feComponentTransfer in="SourceGraphic"><feFuncA tableValues="1.0 0.0" type="table"/></feComponentTransfer></filter><filter id="h" width="100%" height="100%" x="0%" y="0%" filterUnits="objectBoundingBox"><feComponentTransfer in="SourceGraphic"><feFuncA tableValues="1.0 0.0" type="table"/></feComponentTransfer></filter><filter id="z" width="300%" height="300%" x="-100%" y="-100%"><feGaussianBlur result="filter_result_0" stdDeviation="52.5 52.5"/></filter><mask id="l" mask-type="alpha"><g filter="url(#a)"><path fill="#fff" d="M0 0h430v430H0z" opacity="0"/><use xmlns:ns1="http://www.w3.org/1999/xlink" ns1:href="#b"/></g></mask><mask id="C" mask-type="alpha"><use xmlns:ns2="http://www.w3.org/1999/xlink" ns2:href="#c"/></mask><mask id="v" mask-type="alpha"><g filter="url(#d)"><path fill="#fff" d="M0 0h430v430H0z" opacity="0"/><use xmlns:ns3="http://www.w3.org/1999/xlink" ns3:href="#g"/></g></mask><mask id="o" mask-type="alpha"><g filter="url(#h)"><path fill="#fff" d="M0 0h430v430H0z" opacity="0"/><use xmlns:ns4="http://www.w3.org/1999/xlink" ns4:href="#i"/></g></mask><mask id="y" mask-type="alpha"><use xmlns:ns5="http://www.w3.org/1999/xlink" ns5:href="#j"/></mask><path id="b" style="display:none"/><path id="g" fill="red" d="M108.181-66.243v35.562c0 36.252-21.525 62.253-52.495 76.373l13.89 20.551H-69.576l13.89-20.551c-30.97-14.12-52.495-40.121-52.495-76.373v-35.562z" style="display:block" transform="translate(215 293.308)scale(1.23)"/><path id="i" fill="#FFF" d="M23.174 70.324c-5.189 16.379-25.349 24.6-45.026 18.366s-31.425-24.563-26.236-40.942c1.318-4.16 3.6-7.793 6.594-10.797 7.972-7.998 14.204-17.555 17.614-28.32l34.434-88.68c3.209-8.264 12.286-12.614 20.738-9.937l6.291 1.993c8.452 2.677 13.369 11.46 11.234 20.065L25.906 24.403c-3.41 10.765-3.819 22.168-1.907 33.297.718 4.18.493 8.464-.825 12.624" style="display:block" transform="translate(283.664 158.049)scale(1.23)"/><g id="c" clip-path="url(#k)" style="display:none"><g style="display:none"><path fill-opacity="0" stroke-linecap="round" stroke-linejoin="round" class="secondary"/><path/><path fill-opacity="0" stroke-linecap="round" stroke-linejoin="round" class="secondary"/></g><g style="display:none"><path fill-opacity="0" stroke-linecap="round" stroke-linejoin="round" class="secondary"/><path/><path fill-opacity="0" stroke-linecap="round" stroke-linejoin="round" class="secondary"/></g><g mask="url(#l)" style="display:none"><path fill-opacity="0" stroke-linecap="round" stroke-linejoin="round" class="primary"/></g><path fill-opacity="0" stroke-linecap="round" stroke-linejoin="round" class="primary" style="display:none"/></g><g id="j" clip-path="url(#m)" style="display:block"><g clip-path="url(#n)" mask="url(#o)" opacity="0" style="display:block"><g opacity="1" style="display:block"><g opacity="1"><path fill-opacity="0" stroke="#08A88A" stroke-linecap="round" stroke-linejoin="round" stroke-width="12.054" d="M225.233 119.81c-8.332 22.714-24.482 37.19-40.937 42.062-9.763-13.844-12.617-37.633-4.285-60.348s25.52-37.997 41.624-41.437c9.762 13.844 11.93 37.008 3.598 59.723" class="secondary"/><path fill="red" d="M225.233 119.81c-8.332 22.714-24.482 37.19-40.937 42.062-9.763-13.844-12.617-37.633-4.285-60.348s25.52-37.997 41.624-41.437c9.762 13.844 11.93 37.008 3.598 59.723"/></g><path fill-opacity="0" stroke="#08A88A" stroke-linecap="round" stroke-linejoin="round" stroke-width="12.054" d="M180.547 210.478c-1.859-6.146-2.845-12.006-2.608-20.552a74.3 74.3 0 0 1 6.357-28.054" class="secondary" opacity="1"/></g><g opacity="1" style="display:block"><g opacity="1"><path fill-opacity="0" stroke="#08A88A" stroke-linecap="round" stroke-linejoin="round" stroke-width="12.054" d="M123.714 155.19c15.888 5.857 27.113 17.517 29.66 29.235-9.544 7.262-25.651 8.843-41.539 2.986s-27.113-17.516-29.659-29.234c9.544-7.262 25.65-8.844 41.538-2.987" class="secondary"/><path fill="red" d="M123.714 155.19c15.888 5.857 27.113 17.517 29.66 29.235-9.544 7.262-25.651 8.843-41.539 2.986s-27.113-17.516-29.659-29.234c9.544-7.262 25.65-8.844 41.538-2.987"/></g><path fill-opacity="0" stroke="#08A88A" stroke-linecap="round" stroke-linejoin="round" stroke-width="12.054" d="M153.373 184.424c6.871 4.313 18.535 13.943 26.593 27.169" class="secondary" opacity="1"/></g></g><g clip-path="url(#u)" style="display:block"><g style="display:block"><path fill-opacity="0" stroke="#08A88A" stroke-linecap="round" stroke-linejoin="round" stroke-width="12.054" d="M225.233 119.81c-8.332 22.714-24.482 37.19-40.937 42.062-9.763-13.844-12.617-37.633-4.285-60.348s25.52-37.997 41.624-41.437c9.762 13.844 11.93 37.008 3.598 59.723" class="secondary"/><path fill="red" d="M225.233 119.81c-8.332 22.714-24.482 37.19-40.937 42.062-9.763-13.844-12.617-37.633-4.285-60.348s25.52-37.997 41.624-41.437c9.762 13.844 11.93 37.008 3.598 59.723"/><path fill-opacity="0" stroke="#08A88A" stroke-linecap="round" stroke-linejoin="round" stroke-width="12.054" d="M180.547 210.478c-1.859-6.146-2.845-12.006-2.608-20.552a74.3 74.3 0 0 1 6.357-28.054" class="secondary"/></g><g style="display:block"><path fill-opacity="0" stroke="#08A88A" stroke-linecap="round" stroke-linejoin="round" stroke-width="12.054" d="M123.714 155.19c15.888 5.857 27.113 17.517 29.66 29.235-9.544 7.262-25.651 8.843-41.539 2.986s-27.113-17.516-29.659-29.234c9.544-7.262 25.65-8.844 41.538-2.987" class="secondary"/><path fill="red" d="M123.714 155.19c15.888 5.857 27.113 17.517 29.66 29.235-9.544 7.262-25.651 8.843-41.539 2.986s-27.113-17.516-29.659-29.234c9.544-7.262 25.65-8.844 41.538-2.987"/><path fill-opacity="0" stroke="#08A88A" stroke-linecap="round" stroke-linejoin="round" stroke-width="12.054" d="M153.373 184.424c6.871 4.313 18.535 13.943 26.593 27.169" class="secondary"/></g></g><g mask="url(#v)" style="display:block"><path fill-opacity="0" stroke="#121331" stroke-linecap="round" stroke-linejoin="round" stroke-width="12.054" d="M312.168 244.547c-6.383 20.146-31.18 30.258-55.382 22.59-24.203-7.668-38.653-30.212-32.27-50.358 1.62-5.117 4.427-9.586 8.11-13.28 9.805-9.838 17.47-21.593 21.665-34.834l42.354-109.077c3.947-10.164 15.112-15.515 25.508-12.222l7.738 2.451c10.396 3.293 16.443 14.096 13.817 24.68l-28.18 113.567c-4.194 13.241-4.697 27.267-2.346 40.956.883 5.141.607 10.41-1.014 15.527" class="primary"/></g><path fill-opacity="0" stroke="#121331" stroke-linecap="round" stroke-linejoin="round" stroke-width="9.8" d="M108.181-66.243v35.562c0 36.252-21.525 62.253-52.495 76.373l13.89 20.551H-69.576l13.89-20.551c-30.97-14.12-52.495-40.121-52.495-76.373v-35.562z" class="primary" style="display:block" transform="translate(215 293.308)scale(1.23)"/></g></defs><g clip-path="url(#w)"><g clip-path="url(#x)" mask="url(#y)" style="display:block"><g filter="url(#z)" transform="rotate(-94 238.762 -16.565)scale(2.4)"><g class="design"><path fill="#4BE1EC" d="M0-250c137.975 0 250 112.025 250 250S137.975 250 0 250-250 137.975-250 0-137.975-250 0-250" class="primary"/></g><g class="design"><path fill="#CB5EEE" d="M113.242-295.384c97.478 0 176.5 79.022 176.5 176.5s-79.022 176.5-176.5 176.5c-43.948 0-74.396-34.057-105.29-60.631-37.631-32.369-71.21-62.338-71.21-115.869 0-97.478 79.022-176.5 176.5-176.5" class="secondary"/></g></g></g><g clip-path="url(#A)" filter="url(#B)" mask="url(#C)" style="display:none"><g class="design"><path class="primary"/></g><g class="design"><path class="secondary"/></g></g></g></svg>